<svg width="14" height="17" viewBox="0 0 14 17" fill="none" xmlns="http://www.w3.org/2000/svg">
<path d="M13.645 10.4508L7.81925 16.1779C7.60078 16.3926 7.30949 16.5 7.01821 16.5C6.69051 16.5 6.39922 16.3926 6.18075 16.1779L0.355007 10.4508C-0.118336 10.0213 -0.118336 9.26958 0.355007 8.84004C0.791938 8.37472 1.55657 8.37472 1.9935 8.84004L5.85306 12.5984V1.60962C5.85306 1.00112 6.36281 0.5 6.98179 0.5C7.56437 0.5 8.18336 1.00112 8.18336 1.60962V12.5984L12.0065 8.84004C12.4434 8.37472 13.2081 8.37472 13.645 8.84004C14.1183 9.26958 14.1183 10.0213 13.645 10.4508Z" fill="#7A00A3"/>
</svg>
