<svg width="14" height="17" viewBox="0 0 14 17" fill="none" xmlns="http://www.w3.org/2000/svg">
<path d="M13.645 8.17392C13.4265 8.38833 13.1352 8.49553 12.844 8.49553C12.5163 8.49553 12.225 8.38833 12.0065 8.17392L8.18336 4.42183V15.3565C8.18336 15.9997 7.63719 16.5 7.01821 16.5C6.43563 16.5 5.85306 15.9997 5.85306 15.3565V4.42183L1.9935 8.17392C1.55657 8.63847 0.791938 8.63847 0.355007 8.17392C-0.118336 7.74511 -0.118336 6.9947 0.355007 6.56588L6.18075 0.848409C6.61769 0.383864 7.38231 0.383864 7.81925 0.848409L13.645 6.56588C14.1183 6.9947 14.1183 7.74511 13.645 8.17392Z" fill="#7A00A3"/>
</svg>
