<svg width="14" height="17" viewBox="0 0 14 17" fill="none" xmlns="http://www.w3.org/2000/svg">
<path d="M8.01482 1.5V2.125C10.2942 2.59375 12.0116 4.59375 12.0116 7V7.59375C12.0116 9.0625 12.5425 10.5 13.5104 11.5938L13.729 11.8438C14.01 12.1562 14.0725 12.5625 13.9164 12.9375C13.7602 13.2812 13.3855 13.5 13.0108 13.5H1.02039C0.614466 13.5 0.239764 13.2812 0.0836387 12.9375C-0.0724869 12.5625 -0.0100366 12.1562 0.270989 11.8438L0.489565 11.5938C1.45754 10.5 2.0196 9.0625 2.0196 7.59375V7C2.0196 4.59375 3.70575 2.59375 6.01641 2.125V1.5C6.01641 0.96875 6.45356 0.5 7.01561 0.5C7.54644 0.5 8.01482 0.96875 8.01482 1.5ZM7.01561 16.5C6.48479 16.5 5.95396 16.3125 5.57926 15.9375C5.20456 15.5625 5.01721 15.0312 5.01721 14.5H9.01402C9.01402 15.0312 8.79544 15.5625 8.42074 15.9375C8.04604 16.3125 7.51521 16.5 7.01561 16.5Z" fill="#737375"/>
</svg>
