<svg width="10" height="17" viewBox="0 0 10 17" fill="none" xmlns="http://www.w3.org/2000/svg">
<path d="M5.02031 0.5C5.61016 0.5 6.13061 0.96875 6.13061 1.5V2.625C6.16531 2.625 6.2347 2.65625 6.2694 2.65625C6.65106 2.6875 7.72666 2.875 8.17772 2.96875C8.76756 3.09375 9.14923 3.65625 9.01044 4.1875C8.83696 4.71875 8.24711 5.03125 7.65727 4.90625C7.3103 4.8125 6.33879 4.6875 5.95713 4.625C4.84683 4.46875 3.87532 4.5625 3.21608 4.78125C2.59154 5 2.31397 5.3125 2.24457 5.65625C2.17518 6 2.24457 6.1875 2.31397 6.3125C2.38336 6.4375 2.48745 6.5625 2.76502 6.71875C3.32017 7.0625 4.18759 7.28125 5.29789 7.5625H5.40198C6.37349 7.8125 7.58787 8.125 8.48999 8.65625C8.97574 8.9375 9.4268 9.34375 9.70437 9.875C10.0166 10.4375 10.0513 11.0625 9.94725 11.7188C9.70437 12.9062 8.76756 13.7188 7.65727 14.125C7.17151 14.3125 6.65106 14.4062 6.13061 14.4688V15.5C6.13061 16.0625 5.61016 16.5 5.02031 16.5C4.39577 16.5 3.91002 16.0625 3.91002 15.5V14.4375C3.87532 14.4375 3.87532 14.4062 3.84062 14.4062C3.0079 14.3125 1.62003 13.9688 0.683218 13.5938C0.0933727 13.375 -0.149505 12.7812 0.0933728 12.2812C0.33625 11.7812 0.995488 11.5312 1.55064 11.7812C2.27927 12.0625 3.49365 12.3438 4.18759 12.4375C5.29789 12.5938 6.2 12.5 6.82454 12.2812C7.41439 12.0625 7.65727 11.75 7.76136 11.375C7.83075 11.0312 7.76136 10.8438 7.69196 10.7188C7.62257 10.5938 7.51848 10.4688 7.24091 10.3125C6.68576 9.96875 5.81834 9.75 4.70804 9.46875H4.60395C3.63244 9.21875 2.41806 8.90625 1.51594 8.375C1.03019 8.09375 0.579127 7.6875 0.301553 7.15625C-0.0107175 6.59375 -0.0454143 5.96875 0.058676 5.28125C0.33625 4.09375 1.30776 3.3125 2.41806 2.90625C2.86911 2.75 3.38956 2.65625 3.91002 2.59375V1.5C3.91002 0.96875 4.39577 0.5 5.02031 0.5Z" fill="#7A00A3"/>
</svg>
