<svg width="16" height="14" viewBox="0 0 16 14" fill="none" xmlns="http://www.w3.org/2000/svg">
<path fill-rule="evenodd" clip-rule="evenodd" d="M13.7143 14H2.90909C2.13755 14 1.39761 13.718 0.852053 13.2161C0.306493 12.7142 0 12.0335 0 11.3237V1.33975C0 0.523876 0.877714 0.006211 1.64987 0.252427C1.76069 0.287601 1.86791 0.339087 1.97153 0.406886L2.11699 0.502466C2.47078 0.73341 2.89403 0.857149 3.32783 0.856464C3.76164 0.855779 4.18442 0.730703 4.53735 0.498643C5.03276 0.174291 5.62571 0 6.23377 0C6.84182 0 7.43477 0.174291 7.93018 0.498643C8.28311 0.730703 8.70589 0.855779 9.1397 0.856464C9.5735 0.857149 9.99675 0.73341 10.3505 0.502466L10.496 0.406886C11.3214 -0.136013 12.4675 0.406886 12.4675 1.33975V7.11819H15.3766C15.542 7.11819 15.7005 7.17861 15.8174 7.28616C15.9343 7.3937 16 7.53957 16 7.69167V11.8972C16 12.4549 15.7592 12.9898 15.3305 13.3841C14.9019 13.7785 14.3205 14 13.7143 14ZM12.6753 8.26515V11.8972C12.6753 12.1507 12.7848 12.3938 12.9796 12.5731C13.1745 12.7523 13.4387 12.853 13.7143 12.853C13.9898 12.853 14.2541 12.7523 14.4489 12.5731C14.6438 12.3938 14.7532 12.1507 14.7532 11.8972V8.26515H12.6753ZM9.14286 5.01541C9.14286 4.86331 9.07718 4.71744 8.96027 4.60989C8.84337 4.50234 8.68481 4.44192 8.51948 4.44192H3.53247C3.36714 4.44192 3.20858 4.50234 3.09167 4.60989C2.97477 4.71744 2.90909 4.86331 2.90909 5.01541C2.90909 5.16751 2.97477 5.31337 3.09167 5.42092C3.20858 5.52847 3.36714 5.58889 3.53247 5.58889H8.51948C8.68481 5.58889 8.84337 5.52847 8.96027 5.42092C9.07718 5.31337 9.14286 5.16751 9.14286 5.01541ZM8.31169 7.30935C8.31169 7.15725 8.24601 7.01138 8.12911 6.90383C8.0122 6.79628 7.85364 6.73586 7.68831 6.73586H3.53247C3.36714 6.73586 3.20858 6.79628 3.09167 6.90383C2.97477 7.01138 2.90909 7.15725 2.90909 7.30935C2.90909 7.46144 2.97477 7.60731 3.09167 7.71486C3.20858 7.82241 3.36714 7.88283 3.53247 7.88283H7.68831C7.85364 7.88283 8.0122 7.82241 8.12911 7.71486C8.24601 7.60731 8.31169 7.46144 8.31169 7.30935ZM8.51948 9.0298C8.68481 9.0298 8.84337 9.09022 8.96027 9.19777C9.07718 9.30532 9.14286 9.45119 9.14286 9.60329C9.14286 9.75538 9.07718 9.90125 8.96027 10.0088C8.84337 10.1164 8.68481 10.1768 8.51948 10.1768H3.53247C3.36714 10.1768 3.20858 10.1164 3.09167 10.0088C2.97477 9.90125 2.90909 9.75538 2.90909 9.60329C2.90909 9.45119 2.97477 9.30532 3.09167 9.19777C3.20858 9.09022 3.36714 9.0298 3.53247 9.0298H8.51948Z" fill="#737375"/>
</svg>
