<svg width="13" height="16" viewBox="0 0 13 16" fill="none" xmlns="http://www.w3.org/2000/svg">
<path fill-rule="evenodd" clip-rule="evenodd" d="M6.5 0V5.2C6.50001 5.49831 6.61287 5.78591 6.81657 6.00674C7.02026 6.22756 7.30018 6.36576 7.60175 6.3944L7.71875 6.4H13V14.4C13.0001 14.8037 12.8453 15.1925 12.5665 15.4884C12.2878 15.7844 11.9057 15.9657 11.4969 15.996L11.375 16H1.625C1.21503 16.0001 0.820165 15.8477 0.519555 15.5732C0.218945 15.2987 0.0348103 14.9225 0.00406267 14.52L8.14678e-08 14.4V1.6C-0.000129658 1.19634 0.154705 0.807547 0.433466 0.511562C0.712227 0.215576 1.09431 0.0342747 1.50313 0.00400009L1.625 0H6.5ZM5.92556 7.3384L4.20225 9.0352C4.12465 9.109 4.06275 9.19727 4.02017 9.29488C3.97759 9.39248 3.95517 9.49746 3.95423 9.60368C3.9533 9.7099 3.97385 9.81525 4.01471 9.91356C4.05556 10.0119 4.11589 10.1012 4.19218 10.1763C4.26847 10.2514 4.35918 10.3108 4.45904 10.3511C4.55889 10.3913 4.66588 10.4115 4.77376 10.4106C4.88165 10.4097 4.98826 10.3876 5.08739 10.3457C5.18652 10.3038 5.27618 10.2428 5.35113 10.1664L5.6875 9.8352V12C5.6875 12.2122 5.7731 12.4157 5.92548 12.5657C6.07785 12.7157 6.28451 12.8 6.5 12.8C6.71549 12.8 6.92215 12.7157 7.07452 12.5657C7.2269 12.4157 7.3125 12.2122 7.3125 12V9.8352L7.64887 10.1664C7.72382 10.2428 7.81348 10.3038 7.91261 10.3457C8.01174 10.3876 8.11835 10.4097 8.22624 10.4106C8.33412 10.4115 8.44111 10.3913 8.54096 10.3511C8.64082 10.3108 8.73153 10.2514 8.80782 10.1763C8.88411 10.1012 8.94444 10.0119 8.98529 9.91356C9.02615 9.81525 9.0467 9.7099 9.04577 9.60368C9.04483 9.49746 9.02241 9.39248 8.97983 9.29488C8.93725 9.19727 8.87535 9.109 8.79775 9.0352L7.07525 7.3384C6.99979 7.26402 6.91018 7.20501 6.81154 7.16475C6.71291 7.12449 6.60718 7.10377 6.50041 7.10377C6.39363 7.10377 6.2879 7.12449 6.18927 7.16475C6.09063 7.20501 6.00102 7.26402 5.92556 7.3384ZM8.125 0.0344C8.38774 0.0893198 8.63257 0.207511 8.83756 0.3784L8.9375 0.4688L12.5239 4C12.7143 4.18729 12.8544 4.4182 12.9318 4.672L12.9642 4.8H8.125V0.0344Z" fill="#737375"/>
</svg>
