<svg width="14" height="17" viewBox="0 0 14 17" fill="none" xmlns="http://www.w3.org/2000/svg">
<path fill-rule="evenodd" clip-rule="evenodd" d="M7 0.5V5.7C7 6.01826 7.1284 6.32348 7.35696 6.54853C7.58552 6.77357 7.89552 6.9 8.21875 6.9H13.5V14.9C13.5 15.3243 13.3288 15.7313 13.024 16.0314C12.7193 16.3314 12.306 16.5 11.875 16.5H2.125C1.69402 16.5 1.2807 16.3314 0.975951 16.0314C0.671205 15.7313 0.5 15.3243 0.5 14.9V2.1C0.5 1.67565 0.671205 1.26869 0.975951 0.968629C1.2807 0.668571 1.69402 0.5 2.125 0.5H7ZM7 7.7C6.78451 7.7 6.57785 7.78429 6.42548 7.93431C6.2731 8.08434 6.1875 8.28783 6.1875 8.5V10.6664L5.85113 10.3352C5.69789 10.1895 5.49265 10.1088 5.27961 10.1107C5.06658 10.1125 4.86279 10.1966 4.71215 10.3449C4.5615 10.4933 4.47605 10.6939 4.4742 10.9037C4.47235 11.1134 4.55425 11.3155 4.70225 11.4664L6.42475 13.164C6.50021 13.2384 6.58982 13.2974 6.68846 13.3376C6.78709 13.3779 6.89282 13.3986 6.99959 13.3986C7.10637 13.3986 7.2121 13.3779 7.31073 13.3376C7.40937 13.2974 7.49898 13.2384 7.57444 13.164L9.29775 11.4664C9.37535 11.3926 9.43725 11.3043 9.47983 11.2067C9.52241 11.1091 9.54483 11.0041 9.54577 10.8979C9.5467 10.7917 9.52615 10.6864 9.48529 10.588C9.44444 10.4897 9.38411 10.4004 9.30782 10.3253C9.23153 10.2502 9.14082 10.1908 9.04096 10.1505C8.94111 10.1103 8.83412 10.0901 8.72624 10.091C8.61835 10.0919 8.51174 10.114 8.41261 10.1559C8.31348 10.1978 8.22382 10.2588 8.14887 10.3352L7.8125 10.6664V8.5C7.8125 8.28783 7.7269 8.08434 7.57452 7.93431C7.42215 7.78429 7.21549 7.7 7 7.7ZM8.625 0.5344C8.93284 0.598684 9.2151 0.749593 9.4375 0.9688L13.0239 4.5C13.2465 4.71898 13.3998 4.9969 13.4651 5.3H8.625V0.5344Z" fill="#737375"/>
</svg>
