<svg width="12" height="17" viewBox="0 0 12 17" fill="none" xmlns="http://www.w3.org/2000/svg">
<path d="M3.47689 9.90162C3.35174 10.6073 2.945 13.7477 2.78857 14.6299C2.78857 14.7004 2.75728 14.7357 2.6947 14.7357H0.379419C0.129118 14.7357 -0.0273206 14.4887 0.00396705 14.2417L1.81865 1.11554C1.88123 0.762681 2.13153 0.515682 2.4444 0.515682C7.23141 0.515682 7.60686 0.374541 8.82708 0.939108C10.7043 1.75067 10.8921 3.72666 10.2037 5.87907C9.5467 8.06677 7.95103 9.01948 5.82347 9.05477C4.4781 9.09005 3.66462 8.80777 3.47689 9.90162ZM11.1737 4.82051C11.1111 4.78522 11.0798 4.78522 11.0798 4.89108C11.0172 5.27922 10.9234 5.66736 10.7982 6.0555C9.5467 10.078 6.07377 9.72519 4.38424 9.72519C4.19651 9.72519 4.07136 9.86633 4.04007 10.078C3.35174 15.018 3.19531 16.0413 3.19531 16.0413C3.16402 16.2883 3.32046 16.5 3.53947 16.5H5.51059C5.79218 16.5 6.01119 16.2883 6.07377 15.9707C6.10506 15.7943 6.04248 16.1824 6.5118 12.7597C6.66823 11.9835 6.98111 12.054 7.45042 12.054C9.67185 12.054 11.3927 11.066 11.8933 8.10206C12.1123 6.86707 12.0497 5.59679 11.1737 4.82051Z" fill="white"/>
</svg>
